<svg width="179" height="36" viewBox="0 0 179 36" fill="none" xmlns="http://www.w3.org/2000/svg">
<path d="M20.3215 35.9716C2.10214 35.9716 -9.61559e-05 28.1232 -9.61559e-05 23.545V23.0311H11.352C11.4921 25.0866 12.7068 28.5437 21.6763 28.5437H22.3303C31.4868 28.5437 32.5145 26.7217 32.5145 24.8531C32.5145 22.8443 31.44 21.5362 23.4048 21.3493L17.4251 21.2092C4.43796 20.8355 0.467068 16.4441 0.467068 11.025V10.6046C0.467068 5.41904 3.59707 -5.84572e-05 19.3872 -5.84572e-05H22.6106C39.0548 -5.84572e-05 42.7921 5.74606 42.7921 10.9783V11.4455H31.4868C31.2999 10.0907 30.5057 7.2877 21.4427 7.2877H20.6953C12.2863 7.2877 11.679 8.82934 11.679 10.2776C11.679 11.7258 12.5666 13.174 19.7142 13.2674L25.5538 13.3608C38.6344 13.6411 43.9133 16.7711 43.9133 23.6852V24.3392C43.9133 30.0853 41.0169 35.9716 23.545 35.9716H20.3215ZM54.1727 35.3643H48.7536C47.7725 35.3643 46.7448 34.7102 46.7448 33.0752V14.9025H44.9695V10.2308H46.7448V2.19561H52.4909V10.2308H54.1727V14.9025H52.4909V30.0386C52.4909 30.4123 52.5843 30.5992 53.0048 30.5992H54.1727V35.3643ZM91.2213 10.2308V35.3643H80.897V31.0196C79.6357 32.1875 75.9918 35.9249 68.704 35.9249H68.3303C59.6878 35.9249 56.3709 30.5992 56.3709 25.8808V10.2308H66.8821V22.6574C66.8821 26.348 68.9376 28.9174 73.329 28.9174C77.8605 28.9174 80.8036 26.1611 80.8036 22.0968V10.2308H91.2213ZM106.312 10.2308V35.3643H100.66V33.1686C99.8186 34.3365 98.604 35.5511 96.8288 35.5511H96.6419C94.3995 35.5511 93.6521 33.5423 93.6521 32.281V10.2308H99.4449V30.5058C99.4449 30.8795 99.585 31.2532 100.052 31.2532C100.473 31.2532 100.566 30.8795 100.566 30.459V10.2308H106.312ZM143.504 10.2308V35.3643H133.179V31.0196C131.918 32.1875 128.274 35.9249 120.986 35.9249H120.613C111.97 35.9249 108.653 30.5992 108.653 25.8808V10.2308H119.164V22.6574C119.164 26.348 121.22 28.9174 125.611 28.9174C130.143 28.9174 133.086 26.1611 133.086 22.0968V10.2308H143.504ZM152.334 31.5802C152.802 31.5802 152.895 31.2065 152.895 30.7861V14.9959C152.895 14.5287 152.802 14.155 152.334 14.155C151.821 14.155 151.774 14.5287 151.774 14.9492V30.7861C151.774 31.2065 151.821 31.5802 152.334 31.5802ZM152.895 0.607255H158.641V35.3643H152.942V33.4022C152.148 34.4766 151.073 35.6913 149.438 35.6913H149.345C147.289 35.6913 145.934 33.7292 145.934 31.3934V14.0616C145.934 11.7725 147.242 10.044 149.064 10.044H149.251C151.026 10.044 152.054 11.1184 152.895 12.1462V0.607255ZM165.139 4.1577V9.5768H159.393V4.1577H165.139ZM165.139 10.2308V35.3643H159.393V10.2308H165.139ZM171.757 35.738C167.786 35.738 165.871 33.7759 165.871 29.6181V15.9302C165.871 11.8192 168.02 9.8571 171.804 9.8571H172.738C176.662 9.8571 178.624 11.8659 178.624 15.9302V29.6181C178.624 33.7759 176.335 35.738 172.691 35.738H171.757ZM172.224 31.3934C172.691 31.3934 172.832 31.1131 172.832 30.5525V14.9492C172.832 14.482 172.738 14.0616 172.224 14.0616C171.757 14.0616 171.664 14.482 171.664 14.9492V30.5525C171.664 31.1131 171.804 31.3934 172.224 31.3934Z" fill="white"/>
</svg>
