<svg width="1332" height="269" viewBox="0 0 1332 269" fill="none" xmlns="http://www.w3.org/2000/svg">
<path d="M151.491 268.156C15.6713 268.156 -0.000194071 209.649 -0.000194071 175.52V171.689H84.6256C85.6704 187.013 94.725 212.784 161.59 212.784H166.465C234.723 212.784 242.385 199.202 242.385 185.271C242.385 170.296 234.375 160.545 174.475 159.152L129.899 158.108C33.084 155.322 3.48235 122.586 3.48235 82.1881V79.0538C3.48235 40.3975 26.8154 2.91159e-05 144.525 2.91159e-05H168.555C291.141 2.91159e-05 319.001 42.8353 319.001 81.8398V85.3224H234.723C233.33 75.223 227.41 54.3277 159.849 54.3277H154.277C91.5907 54.3277 87.0634 65.8201 87.0634 76.616C87.0634 87.4119 93.6803 98.2078 146.963 98.9043L190.495 99.6008C288.006 101.69 327.359 125.023 327.359 176.565V181.441C327.359 224.276 305.767 268.156 175.52 268.156H151.491ZM403.839 263.629H363.441C356.128 263.629 348.466 258.753 348.466 246.564V111.093H335.233V76.2677H348.466V16.368H391.302V76.2677H403.839V111.093H391.302V223.928C391.302 226.714 391.998 228.107 395.133 228.107H403.839V263.629ZM680.024 76.2677V263.629H603.06V231.241C593.657 239.947 566.493 267.808 512.165 267.808H509.379C444.952 267.808 420.226 228.107 420.226 192.933V76.2677H498.583V168.903C498.583 196.416 513.906 215.57 546.642 215.57C580.423 215.57 602.363 195.023 602.363 164.724V76.2677H680.024ZM792.521 76.2677V263.629H750.382V247.261C744.113 255.967 735.059 265.022 721.825 265.022H720.432C703.716 265.022 698.144 250.047 698.144 240.644V76.2677H741.327V227.41C741.327 230.196 742.372 232.982 745.855 232.982C748.989 232.982 749.685 230.196 749.685 227.062V76.2677H792.521ZM1069.77 76.2677V263.629H992.805V231.241C983.402 239.947 956.239 267.808 901.911 267.808H899.125C834.698 267.808 809.972 228.107 809.972 192.933V76.2677H888.329V168.903C888.329 196.416 903.652 215.57 936.388 215.57C970.169 215.57 992.109 195.023 992.109 164.724V76.2677H1069.77ZM1135.6 235.42C1139.08 235.42 1139.78 232.634 1139.78 229.5V111.79C1139.78 108.307 1139.08 105.521 1135.6 105.521C1131.77 105.521 1131.42 108.307 1131.42 111.441V229.5C1131.42 232.634 1131.77 235.42 1135.6 235.42ZM1139.78 4.52734H1182.61V263.629H1140.13V249.002C1134.21 257.012 1126.2 266.066 1114.01 266.066H1113.31C1097.99 266.066 1087.89 251.44 1087.89 234.027V104.825C1087.89 87.7602 1097.64 74.8747 1111.22 74.8747H1112.62C1125.85 74.8747 1133.51 82.8846 1139.78 90.5462V4.52734ZM1231.05 30.9947V71.3922H1188.22V30.9947H1231.05ZM1231.05 76.2677V263.629H1188.22V76.2677H1231.05ZM1280.39 266.415C1250.79 266.415 1236.51 251.788 1236.51 220.793V118.755C1236.51 88.1084 1252.53 73.4817 1280.74 73.4817H1287.7C1316.96 73.4817 1331.58 88.4567 1331.58 118.755V220.793C1331.58 251.788 1314.52 266.415 1287.36 266.415H1280.39ZM1283.87 234.027C1287.36 234.027 1288.4 231.938 1288.4 227.758V111.441C1288.4 107.959 1287.7 104.825 1283.87 104.825C1280.39 104.825 1279.69 107.959 1279.69 111.441V227.758C1279.69 231.938 1280.74 234.027 1283.87 234.027Z" fill="white"/>
</svg>
